<mxfile host="app.diagrams.net" modified="2023-07-28T05:31:43.503Z" agent="Mozilla/5.0 (Windows NT 10.0; Win64; x64) AppleWebKit/537.36 (KHTML, like Gecko) Chrome/115.0.0.0 Safari/537.36" version="21.6.5" etag="4qxhwameWqCRlZDVP8i9" type="github">
  <diagram name="페이지-1" id="TNS6iXJRntCXzyzfW79U">
    <mxGraphModel>
      <root>
        <mxCell id="0" />
        <mxCell id="1" parent="0" />
      </root>
    </mxGraphModel>
  </diagram>
</mxfile>
